<?xml version="1.0" encoding="utf-8"?>
<!-- Generator: Adobe Illustrator 23.0.1, SVG Export Plug-In . SVG Version: 6.00 Build 0)  -->
<svg version="1.1" id="Layer_1" xmlns="http://www.w3.org/2000/svg" xmlns:xlink="http://www.w3.org/1999/xlink" x="0px" y="0px"
	 viewBox="0 0 252.6 252.6" style="enable-background:new 0 0 252.6 252.6;" xml:space="preserve">
<style type="text/css">
	.st0{fill:#FFFFFF;}
</style>
<path class="st0" d="M249.4,70.8H3.2c-1.8,0-3.2-2.2-3.2-4.9V44.8c0-2.7,1.5-4.9,3.2-4.9h246.1c1.8,0,3.2,2.2,3.2,4.9v21.1
	C252.6,68.6,251.1,70.8,249.4,70.8z"/>
<path class="st0" d="M249.4,140.3H3.2c-1.8,0-3.2-2.2-3.2-4.9v-21.1c0-2.7,1.5-4.9,3.2-4.9h246.1c1.8,0,3.2,2.2,3.2,4.9v21.1
	C252.6,138.1,251.1,140.3,249.4,140.3z"/>
<path class="st0" d="M249.4,206.3H3.2c-1.8,0-3.2-2.2-3.2-4.9v-21.1c0-2.7,1.5-4.9,3.2-4.9h246.1c1.8,0,3.2,2.2,3.2,4.9v21.1
	C252.6,204.1,251.1,206.3,249.4,206.3z"/>
</svg>
